<?xml version="1.0" encoding="UTF-8"?><svg id="Layer_1" xmlns="http://www.w3.org/2000/svg" viewBox="0 0 30.6 30.6"><defs><style>.cls-1{fill:#07daaf;stroke-width:0px;}</style></defs><path id="Icon_awesome-facebook-square" class="cls-1" d="M27.3,0H3.3C1.5,0,0,1.5,0,3.3h0v24.1C0,29.2,1.5,30.6,3.3,30.6h9.4v-10.4h-4.3v-4.9h4.3v-3.7c0-4.2,2.5-6.6,6.4-6.6,1.3,0,2.5.1,3.8.3v4.2h-2.1c-1.3-.2-2.6.8-2.8,2.1,0,.2,0,.4,0,.5v3.2h4.7l-.8,4.9h-4v10.4h9.4c1.8,0,3.3-1.5,3.3-3.3h0V3.3c0-1.8-1.5-3.3-3.3-3.3h0Z"/></svg>