<?xml version="1.0" encoding="UTF-8"?><svg id="Layer_1" xmlns="http://www.w3.org/2000/svg" viewBox="0 0 30.6 30.6"><defs><style>.cls-1{fill:#07daaf;stroke-width:0px;}</style></defs><path id="Icon_awesome-instagram" class="cls-1" d="M15.3,7.5c-4.3,0-7.9,3.5-7.9,7.9s3.5,7.9,7.9,7.9,7.9-3.5,7.9-7.9h0c0-4.3-3.5-7.8-7.8-7.9,0,0,0,0,0,0ZM15.3,20.4c-2.8,0-5.1-2.3-5.1-5.1s2.3-5.1,5.1-5.1,5.1,2.3,5.1,5.1h0c0,2.8-2.3,5.1-5.1,5.1ZM25.3,7.1c0,1-.8,1.8-1.8,1.8s-1.8-.8-1.8-1.8.8-1.8,1.8-1.8c0,0,0,0,0,0,1,0,1.8.8,1.8,1.8,0,0,0,0,0,0ZM30.5,9c0-2.4-.8-4.7-2.5-6.4C26.3,1,24,0,21.6.1,19.1,0,11.5,0,9,.1c-2.4,0-4.7.8-6.4,2.5C.9,4.3,0,6.6.1,9,0,11.5,0,19.1.1,21.6c0,2.4.8,4.7,2.5,6.4,1.7,1.6,4,2.5,6.4,2.5,2.5.1,10.1.1,12.6,0,2.4,0,4.7-.8,6.4-2.5,1.6-1.7,2.5-4,2.5-6.4.1-2.5.1-10.1,0-12.6h0ZM27.3,24.3c-.5,1.3-1.6,2.4-2.9,2.9-2,.8-6.8.6-9,.6s-7,.2-9-.6c-1.3-.5-2.4-1.6-2.9-2.9-.8-2-.6-6.8-.6-9s-.2-7,.6-9c.5-1.3,1.6-2.4,2.9-2.9,2-.8,6.8-.6,9-.6s7-.2,9,.6c1.3.5,2.4,1.6,2.9,2.9.8,2,.6,6.8.6,9s.2,7-.6,9Z"/></svg>