<?xml version="1.0" encoding="UTF-8"?><svg id="Layer_1" xmlns="http://www.w3.org/2000/svg" viewBox="0 0 247.9 60.7"><defs><style>.cls-1{font-size:4.9px;}.cls-1,.cls-2{fill:#008d71;font-family:MyriadPro-Regular, 'Myriad Pro';stroke:#025040;}.cls-1,.cls-2,.cls-3{stroke-miterlimit:10;stroke-width:.8px;}.cls-4{fill:#025040;}.cls-4,.cls-5,.cls-6{stroke-width:0px;}.cls-7{font-family:MATRIX, MATRIX;font-size:19px;}.cls-7,.cls-6{fill:#028b70;}.cls-5{fill:#101a2c;}.cls-2{font-size:5.1px;}.cls-3{fill:#3d8e61;stroke:#397f58;}</style></defs><text class="cls-7" transform="translate(69 27.8)"><tspan x="0" y="0">Ayoub Ben Sedrine</tspan></text><g id="right"><text class="cls-2" transform="translate(229.5 14.3) scale(1.4 1)"><tspan x="0" y="0">0</tspan></text><text class="cls-2" transform="translate(239.9 19.8) scale(1.4 1)"><tspan x="0" y="0">0</tspan></text><text class="cls-2" transform="translate(243.3 27.8) scale(1.4 1)"><tspan x="0" y="0">0</tspan></text><text class="cls-2" transform="translate(239.6 31.5) scale(1.4 1)"><tspan x="0" y="0">0</tspan></text><path class="cls-3" d="M239.7,21.5h0l-.8.3v-.3c-.1,0,.9-.4.9-.4h.5v3.3h-.6v-2.9Z"/><path class="cls-3" d="M246.9,31.6h0l-.8.3v-.3c-.1,0,.9-.4.9-.4h.5v3.3h-.6v-2.9Z"/><path class="cls-3" d="M237,14.2h0l-.8.3v-.3c-.1,0,.9-.4.9-.4h.5v3.3h-.6v-2.9Z"/></g><g id="left"><text class="cls-1" transform="translate(61.7 15.2) scale(1.7 1)"><tspan x="0" y="0">0</tspan></text><text class="cls-1" transform="translate(61.1 22.6) scale(1.7 1)"><tspan x="0" y="0">0</tspan></text><text class="cls-1" transform="translate(53.7 33.1) scale(1.7 1)"><tspan x="0" y="0">0</tspan></text><path class="cls-3" d="M59,16h0l-.9.3v-.3c-.1,0,1-.4,1-.4h.6v3.2h-.7v-2.8Z"/><path class="cls-3" d="M70.2,11.1h0l-.9.3v-.3c-.1,0,1-.4,1-.4h.6v3.2h-.7v-2.8Z"/><path class="cls-3" d="M56.9,23h0l-.9.3v-.3c-.1,0,1-.4,1-.4h.6v3.2h-.7v-2.8Z"/><path class="cls-3" d="M61.6,27.5h0l-.9.3v-.3c-.1,0,1-.4,1-.4h.6v3.2h-.7v-2.8Z"/></g><rect class="cls-4" x="133.9" y="43.8" width="19.2" height="16.9" rx="3.2" ry="3.2"/><ellipse class="cls-5" cx="150.6" cy="46.5" rx=".6" ry=".6"/><ellipse class="cls-5" cx="150.6" cy="58" rx=".6" ry=".6"/><polygon class="cls-5" points="150.2 50.3 149.1 49.7 149.1 50.9 150.2 50.3"/><polygon class="cls-5" points="149.3 49.6 150.4 50.1 150.4 49 149.3 49.6"/><polygon class="cls-5" points="150.2 51.8 149.1 51.3 149.1 52.4 150.2 51.8"/><polygon class="cls-5" points="149.3 51.1 150.4 51.6 150.4 50.5 149.3 51.1"/><polygon class="cls-5" points="150.2 53.3 149.1 52.8 149.1 53.9 150.2 53.3"/><polygon class="cls-5" points="149.3 52.6 150.4 53.2 150.4 52 149.3 52.6"/><polygon class="cls-5" points="150.2 54.9 149.1 54.3 149.1 55.4 150.2 54.9"/><polygon class="cls-5" points="149.3 54.1 150.4 54.7 150.4 53.5 149.3 54.1"/><ellipse class="cls-5" cx="136.8" cy="46.5" rx=".6" ry=".6"/><ellipse class="cls-5" cx="136.8" cy="58" rx=".6" ry=".6"/><polygon class="cls-5" points="138.5 49.6 137.4 49 137.4 50.1 138.5 49.6"/><polygon class="cls-5" points="137.6 50.3 138.6 50.9 138.6 49.7 137.6 50.3"/><polygon class="cls-5" points="138.5 51.1 137.4 50.5 137.4 51.6 138.5 51.1"/><polygon class="cls-5" points="137.6 51.8 138.6 52.4 138.6 51.3 137.6 51.8"/><polygon class="cls-5" points="138.5 52.6 137.4 52 137.4 53.2 138.5 52.6"/><polygon class="cls-5" points="137.6 53.3 138.7 53.9 138.7 52.8 137.6 53.3"/><polygon class="cls-5" points="138.5 54.1 137.4 53.5 137.4 54.7 138.5 54.1"/><polygon class="cls-5" points="137.6 54.9 138.7 55.4 138.7 54.3 137.6 54.9"/><ellipse class="cls-5" cx="143.9" cy="51.7" rx="1.3" ry="1.2"/><path class="cls-5" d="M143.3,52.5h1.3v1.8c0,.2-.1.3-.3.3h-.7c-.2,0-.3-.1-.3-.3v-1.8h0Z"/><path class="cls-6" d="M137.3,36.7h4.1v2.2c0,.8-.6,1.4-1.4,1.4h-1.2c-.8,0-1.4-.6-1.4-1.4v-2.2h0Z"/><path class="cls-6" d="M143.9,35.1h0c1.3,0,2.3.7,2.4,1.7h4.1c0-2.7-2.9-4.9-6.6-4.9s-6.6,2.2-6.6,4.9h4.1c.2-.9,1.2-1.7,2.4-1.7Z"/><rect class="cls-6" x="146.4" y="36.7" width="4.1" height="7.1"/></svg>